<svg xmlns="http://www.w3.org/2000/svg" viewBox="0 0 403 248" width="403" height="248">
	<style>
		tspan { white-space:pre }
	</style>
	<path id="Silica " fill="#9e2a2b" d="M99.51 248.17Q93.77 248.17 89.14 246.7Q84.51 245.18 81.17 242.37Q77.77 239.55 75.96 235.69Q74.2 231.82 74.2 227.13Q74.2 223.21 75.43 219.75Q76.72 216.23 79 213.66Q81.29 211.08 84.33 209.67Q87.38 208.21 90.78 208.21Q95 208.21 97.87 210.32Q100.74 212.43 101.44 216.12Q95.17 216.12 91.48 219.46Q89.72 221.04 88.73 223.32Q87.79 225.61 87.79 228.36Q87.79 233.64 90.84 236.74Q93.94 239.79 99.16 239.79Q102.26 239.79 104.96 238.68Q107.65 237.5 109.65 235.51Q111.64 233.52 112.69 230.77Q113.81 227.95 113.81 224.79Q113.81 218.93 109.82 212.6Q108.24 210.14 106.31 207.8Q104.43 205.39 101.03 201.47Q97.99 197.95 95.94 195.38Q93.88 192.8 92.24 190.1Q88.26 183.6 88.26 177.33Q88.26 172.64 90.25 168.66Q92.24 164.61 95.94 161.63Q99.63 158.64 104.55 157Q109.47 155.36 115.15 155.36Q124.82 155.36 130.68 159.93Q133.49 162.15 134.96 165.26Q136.48 168.36 136.48 172.17Q136.48 177.15 133.96 180.32Q132.79 181.84 131.03 182.66Q129.33 183.48 127.4 183.48Q122.89 183.48 120.08 179.73Q122.36 178.09 123.65 175.39Q125 172.64 125 169.54Q125 165.67 122.71 163.44Q120.43 161.16 116.44 161.16Q114.04 161.16 111.99 162.04Q110 162.91 108.59 164.55Q107.13 166.2 106.31 168.42Q105.54 170.65 105.54 173.29Q105.54 177.04 107.3 180.49Q109.06 183.95 112.34 187.7Q115.27 191.16 118.67 194.55Q126.58 202.76 129.86 210.55Q131.79 215.18 131.79 220.75Q131.79 226.61 129.39 231.64Q126.99 236.63 122.54 240.32Q118.08 244.07 112.17 246.12Q106.25 248.17 99.51 248.17ZM158.57 179.5Q156.64 179.5 154.88 178.79Q153.12 178.03 151.83 176.74Q150.54 175.51 149.78 173.75Q149.08 172 149.08 170.06Q149.08 168.13 149.78 166.37Q150.54 164.61 151.83 163.27Q153.12 161.92 154.88 161.21Q156.64 160.45 158.57 160.45Q160.51 160.45 162.26 161.21Q164.02 161.92 165.37 163.27Q166.72 164.61 167.42 166.37Q168.18 168.13 168.18 170.06Q168.18 172 167.42 173.75Q166.72 175.51 165.37 176.74Q164.02 178.03 162.26 178.79Q160.51 179.5 158.57 179.5ZM150.43 246.7Q144.69 246.7 141.35 243.3Q137.6 239.55 137.6 232.35Q137.6 228.95 138.53 224.5L146.68 186L163.96 186L155.35 226.78Q154.88 228.3 154.88 230.65Q154.88 233.11 155.99 234.11Q157.17 235.1 159.74 235.1Q161.5 235.1 163.14 234.34Q164.84 233.52 166.25 232.11Q169.12 229.24 170.58 224.5L175.62 224.5Q172.4 233.58 167.54 238.97Q163.44 243.36 158.28 245.3Q154.53 246.7 150.43 246.7ZM182.48 246.7Q176.74 246.7 173.4 243.3Q169.65 239.55 169.65 232.35Q169.65 228.95 170.58 224.5L183.42 164.38L201.17 161.98L187.4 226.78Q186.93 228.3 186.93 230.65Q186.93 233.11 188.04 234.11Q189.22 235.1 191.79 235.1Q193.55 235.1 195.19 234.34Q196.89 233.52 198.3 232.11Q201.17 229.24 202.63 224.5L207.67 224.5Q204.45 233.58 199.59 238.97Q195.49 243.36 190.33 245.3Q186.58 246.7 182.48 246.7ZM222.67 179.5Q220.74 179.5 218.98 178.79Q217.22 178.03 215.94 176.74Q214.65 175.51 213.88 173.75Q213.18 172 213.18 170.06Q213.18 168.13 213.88 166.37Q214.65 164.61 215.94 163.27Q217.22 161.92 218.98 161.21Q220.74 160.45 222.67 160.45Q224.61 160.45 226.37 161.21Q228.12 161.92 229.47 163.27Q230.82 164.61 231.52 166.37Q232.28 168.13 232.28 170.06Q232.28 172 231.52 173.75Q230.82 175.51 229.47 176.74Q228.12 178.03 226.37 178.79Q224.61 179.5 222.67 179.5ZM214.53 246.7Q208.79 246.7 205.45 243.3Q201.7 239.55 201.7 232.35Q201.7 228.95 202.63 224.5L210.78 186L228.06 186L219.45 226.78Q218.98 228.3 218.98 230.65Q218.98 233.11 220.1 234.11Q221.27 235.1 223.85 235.1Q225.6 235.1 227.24 234.34Q228.94 233.52 230.35 232.11Q233.22 229.24 234.69 224.5L239.72 224.5Q236.5 233.58 231.64 238.97Q227.54 243.36 222.38 245.3Q218.63 246.7 214.53 246.7ZM251.85 246.7Q243.01 246.7 238.2 242.25Q233.1 237.5 233.1 227.66Q233.1 223.97 233.81 219.46Q234.57 214.89 236.09 210.38Q239.67 199.42 246.23 192.91Q254.31 184.95 265.39 184.95Q272.6 184.95 276.05 188.4Q278.75 191.16 278.75 195.96Q278.75 200.18 276.87 202.52Q275.12 204.69 272.36 204.69Q270.37 204.69 268.14 203.29Q269.61 199.48 269.61 196.2Q269.61 193.91 268.73 192.62Q267.91 191.27 266.27 191.27Q262.75 191.27 258.94 197.48Q255.49 202.99 253.2 211.49Q250.86 219.81 250.86 226.55Q250.86 232.41 253.08 234.63Q255.02 236.63 259.53 236.63Q266.03 236.63 271.42 233.11Q273.71 231.64 275.82 229.65Q277.93 227.6 280.74 224.5L284.84 224.5Q279.16 234.11 271.78 239.79Q262.69 246.7 251.85 246.7ZM295.15 246.7Q288.3 246.7 284.08 242.43Q279.16 237.39 279.16 227.43Q279.16 223.21 279.98 218.52Q280.86 213.83 282.5 209.26Q286.25 198.95 292.75 192.62Q300.25 185.41 310.04 185.41Q314.9 185.41 317.3 187.11Q319.76 188.75 319.76 191.51L319.76 192.39L321.05 186L338.34 186L329.72 226.78Q329.2 228.54 329.2 230.65Q329.2 235.8 334.12 235.8Q337.4 235.8 340.1 232.46Q342.38 229.65 343.85 224.5L348.88 224.5Q345.66 233.64 341.09 238.97Q337.22 243.36 332.36 245.3Q328.79 246.7 324.8 246.7Q319.71 246.7 316.66 243.95Q313.67 241.14 313.03 235.69Q309.63 240.49 305.88 243.19Q301.07 246.7 295.15 246.7ZM302.95 235.1Q304.29 235.1 305.76 234.4Q307.28 233.7 308.69 232.41Q311.85 229.36 312.91 224.5L318.65 197.43Q318.65 196.84 318.36 196.08Q318.12 195.26 317.65 194.55Q316.25 192.86 313.73 192.86Q311.33 192.86 309.04 194.44Q306.81 196.02 304.82 198.83Q301.31 203.93 299.02 212.13Q297.97 215.77 297.44 219.34Q296.91 222.86 296.91 225.73Q296.91 231.7 299.14 233.81Q299.9 234.63 300.84 234.87Q301.78 235.1 302.95 235.1Z" />
	<path id="The " fill="#9e2a2b" d="M5.17 24L9.42 4.14L9.07 4.14Q6.4 4.14 5.06 5.35Q3.43 6.82 3.43 10.2Q3.43 11.14 3.63 11.7Q3.69 11.89 3.78 12.03Q3.84 12.13 3.84 12.24Q2.21 12.24 1.47 11.59Q0.63 10.89 0.63 9.34Q0.63 7.78 1.2 6.39Q1.79 4.99 2.98 3.93Q4.25 2.79 6.21 2.16Q8.19 1.53 10.87 1.53Q12.41 1.53 13.81 1.71Q14.25 1.75 14.96 1.87Q16.13 2.09 17.21 2.16Q17.74 2.22 18.55 2.22Q19.54 2.22 20.45 2.04Q21.36 1.87 22.03 1.59Q21.96 3.55 21.02 4.47Q20.1 5.4 18.28 5.4Q17.3 5.4 16.31 5.24Q15.31 5.07 13.62 4.74L9.48 24L5.17 24ZM25.71 24.18Q23.85 24.18 22.96 23.12Q22.18 22.21 22.18 20.79Q22.18 20.12 22.34 19.22Q22.52 18.33 22.85 16.92Q23.19 15.49 23.35 14.64Q23.53 13.78 23.53 13.15Q23.53 11.61 22.44 11.61Q21.68 11.61 21.04 12.41Q20.49 13.1 20.1 14.38L18.06 24L13.74 24L18.09 3.59L22.53 2.99L20.92 10.55Q21.8 9.57 22.81 9.18Q23.56 8.88 24.42 8.88Q25.94 8.88 26.82 9.67Q27.76 10.54 27.76 12.27Q27.76 13.31 27.38 14.98Q27.28 15.46 27.04 16.43Q26.62 18.05 26.43 19.02Q26.31 19.63 26.31 20.02Q26.31 20.62 26.57 20.95Q26.85 21.28 27.51 21.28Q28.4 21.28 29.02 20.54Q29.49 19.99 30.03 18.62L31.29 18.62Q30.18 21.92 28.48 23.24Q27.28 24.18 25.71 24.18ZM34.32 24.18Q32.11 24.18 30.91 23.06Q29.64 21.88 29.64 19.42Q29.64 18.49 29.81 17.36Q30 16.24 30.37 15.11Q30.78 13.85 31.41 12.72Q32.05 11.59 32.9 10.73Q34.86 8.74 37.74 8.74Q39.57 8.74 40.4 9.62Q41.05 10.3 41.05 11.61Q41.05 12.88 40.49 14.01Q39.93 15.12 38.95 15.99Q37.97 16.84 36.73 17.35Q35.48 17.85 34.15 17.94Q34.07 18.7 34.07 19.14Q34.07 20.6 34.63 21.16Q35.11 21.66 36.24 21.66Q37.87 21.66 39.22 20.78Q39.79 20.41 40.31 19.91Q40.84 19.4 41.54 18.62L42.57 18.62Q41.15 21.03 39.3 22.45Q37.03 24.18 34.32 24.18ZM34.38 16.5Q35.22 16.44 36.01 16.02Q36.8 15.59 37.41 14.9Q38.03 14.2 38.38 13.34Q38.73 12.46 38.73 11.55Q38.73 10.95 38.56 10.64Q38.4 10.32 37.98 10.32Q37.44 10.32 36.89 10.85Q36.34 11.37 35.83 12.3Q35.36 13.16 34.98 14.26Q34.6 15.36 34.38 16.5Z" />
	<path id="Legend " fill="#9e2a2b" d="M110.1 144Q106.12 144 102.08 142.18Q98.03 140.31 93.35 136.91Q89.07 133.92 84.85 130.35Q74.95 122.14 66.74 118.75Q62 116.75 56.55 116.75L55.2 116.75Q54.85 116.75 53.79 116.87L71.67 33.73Q63.58 37.07 59.24 43.69Q54.91 50.25 54.91 59.86Q54.91 63.55 55.73 65.89Q55.96 66.66 56.31 67.24Q56.55 67.65 56.55 68.06Q50.04 68.06 47.06 65.43Q43.72 62.61 43.72 56.4Q43.72 52.48 45.42 48.67Q47.12 44.8 50.22 41.23Q53.21 37.77 57.25 34.84Q61.35 31.85 66.04 29.68Q76 25.17 85.85 25.17Q88.01 25.17 90.65 25.46L72.19 111.6Q75.06 112.24 77.99 113.53Q80.98 114.82 84.79 116.87L91.35 120.39Q98.97 124.55 105.12 126.13Q108.64 127.07 112.51 127.07Q117.96 127.07 122.58 125.13Q121.53 133.92 118.31 138.9Q116.72 141.36 114.62 142.71Q112.56 144 110.1 144ZM105.65 114.7Q96.8 114.7 92 110.25Q86.9 105.5 86.9 95.66Q86.9 91.97 87.6 87.46Q88.37 82.95 89.83 78.43Q91.47 73.39 93.99 68.88Q96.57 64.37 99.97 60.91Q107.82 52.95 119.3 52.95Q126.63 52.95 129.97 56.46Q132.54 59.21 132.54 64.43Q132.54 69.53 130.32 74.04Q128.09 78.49 124.17 81.95Q120.24 85.35 115.26 87.4Q110.28 89.39 104.95 89.74Q104.65 92.79 104.65 94.55Q104.65 100.41 106.88 102.63Q108.81 104.63 113.33 104.63Q119.83 104.63 125.22 101.11Q127.51 99.64 129.62 97.65Q131.72 95.6 134.54 92.5L138.64 92.5Q132.96 102.11 125.57 107.79Q116.49 114.7 105.65 114.7ZM105.88 84Q109.22 83.77 112.39 82.07Q115.55 80.37 118.01 77.61Q120.47 74.8 121.88 71.34Q123.29 67.83 123.29 64.2Q123.29 61.79 122.58 60.56Q121.94 59.27 120.3 59.27Q118.13 59.27 115.9 61.38Q113.74 63.49 111.69 67.18Q109.81 70.64 108.29 75.04Q106.76 79.43 105.88 84ZM155.75 144Q152.94 144 150.47 143.3Q148.07 142.54 146.31 141.07Q144.44 139.61 143.38 137.44Q142.33 135.21 142.33 132.34Q142.33 125.54 148.72 120.68Q153.52 117.11 161.9 114.47L163.37 108.14Q157.21 114.7 148.95 114.7Q142.1 114.7 137.88 110.43Q132.96 105.39 132.96 95.43Q132.96 91.21 133.78 86.52Q134.65 81.83 136.29 77.26Q140.04 66.95 146.55 60.62Q154.05 53.41 163.83 53.41Q168.7 53.41 171.1 55.11Q173.56 56.75 173.56 59.51L173.56 60.21L174.85 54L192.13 54L180.24 109.66Q185.92 107.79 189.32 104.04Q193.01 100 195.36 92.5L200.4 92.5Q197.17 103.16 190.79 108.96Q186.1 113.18 179.19 114.94L177.37 123.61Q175.08 135.09 168.23 140.25Q163.25 144 155.75 144ZM156.74 103.1Q159.32 103.1 162.19 100.7Q165.3 98 166.35 93.73L172.45 65.31Q172.45 64.72 172.15 63.96Q171.92 63.2 171.45 62.55Q170.04 60.86 167.53 60.86Q165.12 60.86 162.84 62.44Q160.61 64.02 158.62 66.83Q155.1 71.93 152.82 80.13Q151.76 83.77 151.24 87.34Q150.71 90.86 150.71 93.73Q150.71 99.7 152.94 101.81Q153.7 102.63 154.63 102.87Q155.57 103.1 156.74 103.1ZM152.99 134.63Q154.87 134.63 156.86 131.99Q158.85 129.41 159.97 123.96L160.67 120.5Q155.22 122.55 152.53 124.66Q148.95 127.36 148.95 130.7Q148.95 132.28 149.95 133.34Q151.06 134.63 152.99 134.63ZM212.53 114.7Q203.68 114.7 198.87 110.25Q193.78 105.5 193.78 95.66Q193.78 91.97 194.48 87.46Q195.24 82.95 196.71 78.43Q198.35 73.39 200.87 68.88Q203.44 64.37 206.84 60.91Q214.69 52.95 226.18 52.95Q233.5 52.95 236.84 56.46Q239.42 59.21 239.42 64.43Q239.42 69.53 237.19 74.04Q234.97 78.49 231.04 81.95Q227.12 85.35 222.13 87.4Q217.15 89.39 211.82 89.74Q211.53 92.79 211.53 94.55Q211.53 100.41 213.76 102.63Q215.69 104.63 220.2 104.63Q226.71 104.63 232.1 101.11Q234.38 99.64 236.49 97.65Q238.6 95.6 241.41 92.5L245.51 92.5Q239.83 102.11 232.45 107.79Q223.37 114.7 212.53 114.7ZM212.76 84Q216.1 83.77 219.26 82.07Q222.43 80.37 224.89 77.61Q227.35 74.8 228.76 71.34Q230.16 67.83 230.16 64.2Q230.16 61.79 229.46 60.56Q228.81 59.27 227.17 59.27Q225.01 59.27 222.78 61.38Q220.61 63.49 218.56 67.18Q216.69 70.64 215.16 75.04Q213.64 79.43 212.76 84ZM284.71 114.7Q277.27 114.7 273.7 110.48Q270.59 106.85 270.59 101.17Q270.59 98.47 271.24 94.9Q271.94 91.32 273.29 85.7Q274.63 79.96 275.28 76.56Q275.98 73.1 275.98 70.58Q275.98 64.43 271.65 64.43Q268.6 64.43 266.02 67.65Q263.85 70.41 262.27 75.5L254.13 114L236.84 114L249.56 54L266.84 54L265.55 60.21Q269.07 56.29 273.11 54.7Q276.1 53.53 279.56 53.53Q285.65 53.53 289.17 56.7Q292.92 60.15 292.92 67.07Q292.92 71.23 291.39 77.91Q290.98 79.84 290.04 83.71Q288.35 90.21 287.58 94.08Q287.12 96.54 287.12 98.06Q287.12 100.46 288.17 101.81Q289.28 103.1 291.92 103.1Q295.49 103.1 297.96 100.17Q299.83 97.95 302 92.5L307.04 92.5Q302.58 105.68 295.79 110.95Q290.98 114.7 284.71 114.7ZM316.41 114.7Q309.56 114.7 305.34 110.43Q300.42 105.39 300.42 95.43Q300.42 91.21 301.24 86.52Q302.12 81.83 303.76 77.26Q307.51 66.95 314.01 60.62Q321.51 53.41 331.29 53.41Q336.16 53.41 338.56 55.11Q341.02 56.75 341.02 59.51L341.02 59.98L346.88 32.38L364.63 29.98L350.87 94.78Q350.34 96.54 350.34 98.65Q350.34 101.11 351.51 102.11Q352.68 103.1 355.26 103.1Q358.6 103.1 361.24 100.11Q363.46 97.48 364.99 92.5L370.03 92.5Q366.86 101.52 362.23 106.73Q358.31 111.07 353.5 112.77Q350.04 114 345.94 114Q340.96 114 337.92 111.36Q334.87 108.73 334.17 103.69Q330.94 108.55 327.19 111.19Q322.33 114.7 316.41 114.7ZM324.21 103.1Q325.49 103.1 326.96 102.46Q328.48 101.81 329.83 100.64Q332.99 97.77 334.05 93.14L334.05 92.5L339.91 65.02Q339.5 63.38 338.74 62.38Q337.51 60.86 334.99 60.86Q332.58 60.86 330.3 62.44Q328.07 64.02 326.08 66.83Q322.56 71.93 320.28 80.13Q319.22 83.77 318.7 87.34Q318.17 90.86 318.17 93.73Q318.17 99.7 320.4 101.81Q321.16 102.63 322.1 102.87Q323.03 103.1 324.21 103.1Z" />
	<path id="Of " fill="#9e2a2b" d="M379.63 143.18Q377.13 143.18 375.76 141.81Q374.26 140.3 374.26 137.16Q374.26 135.91 374.49 134.39Q374.72 132.86 375.16 131.34Q375.63 129.71 376.32 128.23Q377.02 126.75 377.89 125.64Q379.9 123.08 382.39 123.08Q382.84 123.08 383.19 123.14Q383.56 123.18 383.95 123.33Q382.65 124.09 381.37 126.64Q380.2 129 379.46 131.96Q378.69 134.93 378.69 137.27Q378.69 138.85 379.1 139.76Q379.54 140.74 380.44 140.74Q381.17 140.74 381.92 140.17Q382.68 139.6 383.41 138.56Q384.11 137.55 384.71 136.22Q385.31 134.87 385.75 133.35Q386.71 130.07 386.71 127.14Q386.71 125.73 386.55 124.78Q386.38 123.83 385.97 123.2Q385.53 122.52 384.79 122.2Q384.04 121.88 382.87 121.88Q381.15 121.88 379.59 122.42Q378.02 122.95 376.83 123.94Q375.6 124.98 374.91 126.42Q374.23 127.85 374.23 129.6Q374.23 130.26 374.39 130.74Q374.43 130.93 374.49 131.02Q374.53 131.12 374.53 131.21Q373.04 131.21 372.26 130.62Q371.5 130.02 371.5 128.69Q371.5 126.62 373.23 124.69Q374.93 122.81 377.64 121.69Q380.5 120.5 383.59 120.5Q387.34 120.5 389.11 122.65Q390.69 124.59 390.69 128.18Q390.69 129.68 390.41 131.35Q390.13 133.02 389.58 134.64Q388.96 136.39 388.05 137.92Q387.16 139.44 385.99 140.57Q383.28 143.18 379.63 143.18ZM388.27 150.5Q387.6 150.5 386.96 150.27Q386.33 150.03 385.83 149.61Q385.31 149.15 385.02 148.57Q384.73 147.97 384.73 147.26Q384.73 146.25 385.11 145.53Q385.51 144.82 386.24 144.29Q386.88 143.83 387.73 143.5Q388.6 143.15 389.89 142.77L393.52 125.63Q394.07 122.77 395.85 121.47Q397.12 120.53 398.98 120.53Q399.66 120.53 400.29 120.76Q400.93 121 401.43 121.42Q401.94 121.88 402.22 122.48Q402.51 123.06 402.51 123.77Q402.51 124.47 402.42 125L401.02 125Q401.08 124.54 401.08 124.19Q401.08 123.69 400.74 123.43Q400.42 123.17 399.93 123.17Q399.33 123.17 398.81 123.63Q398.1 124.26 397.84 125.63L397.33 128L399.52 128L399.3 129.2L397.09 129.2L393.64 145.4Q393.06 148.26 391.36 149.56Q390.12 150.5 388.27 150.5ZM387.59 147.83Q388.11 147.83 388.54 147.34Q389.01 146.76 389.28 145.49L389.68 143.75Q388.08 144.27 387.32 144.92Q386.38 145.71 386.38 146.84Q386.38 147.23 386.72 147.5Q387.12 147.83 387.59 147.83Z" />
</svg>
